<?xml version="1.0" standalone="no"?>
<!DOCTYPE svg PUBLIC "-//W3C//DTD SVG 20010904//EN"
 "http://www.w3.org/TR/2001/REC-SVG-20010904/DTD/svg10.dtd">
<svg version="1.0" xmlns="http://www.w3.org/2000/svg"
 width="283.000000pt" height="283.000000pt" viewBox="0 0 283.000000 283.000000"
 preserveAspectRatio="xMidYMid meet">
<metadata>
Created by potrace 1.14, written by Peter Selinger 2001-2017
</metadata>
<g transform="translate(0.000000,283.000000) scale(0.100000,-0.100000)"
fill="#000000" stroke="none">
<path d="M2418 2747 c-80 -28 -88 -33 -94 -61 -24 -117 -196 -357 -432 -603
-74 -77 -82 -83 -120 -83 l-41 0 42 69 c23 38 53 75 67 83 73 38 172 126 217
193 23 36 51 103 58 144 5 31 -10 41 -67 41 -22 0 -28 -6 -33 -32 -10 -45 -52
-122 -83 -150 l-25 -23 17 32 c26 51 57 179 56 230 -2 96 3 91 -75 68 -27 -9
-67 -20 -87 -26 -35 -9 -38 -13 -38 -44 0 -61 -59 -209 -137 -343 l-25 -42
-47 34 c-272 200 -504 290 -634 247 -50 -17 -131 -110 -158 -181 -64 -169 19
-363 217 -506 22 -16 41 -33 42 -37 2 -4 -21 -26 -50 -49 -29 -23 -68 -56 -86
-74 l-34 -31 -46 14 c-154 49 -284 71 -409 71 -153 0 -257 -34 -333 -108 -62
-61 -75 -93 -75 -190 0 -75 3 -91 27 -131 80 -136 254 -204 579 -228 12 -1 16
-16 17 -78 3 -111 13 -183 43 -293 88 -325 311 -523 659 -584 84 -14 343 -15
435 -1 71 10 239 46 285 59 25 8 71 21 102 31 35 10 66 14 80 9 13 -4 28 -9
33 -10 136 -27 252 -20 342 21 106 48 178 142 203 267 29 147 -55 313 -194
381 -32 16 -54 33 -51 40 18 54 28 307 15 377 -4 25 -11 61 -14 80 -15 96 -89
256 -161 349 -76 100 -220 215 -320 257 -19 8 -35 16 -35 18 0 2 18 23 41 47
22 24 83 94 134 154 l93 110 78 23 c164 49 355 160 413 240 l21 30 -40 26 -39
26 -56 -54 c-51 -49 -192 -129 -263 -151 l-23 -7 23 39 c57 90 89 178 94 253
2 41 -6 90 -15 89 -3 0 -45 -15 -93 -32z m-1239 -508 c89 -43 185 -102 277
-170 l54 -40 -17 -27 c-30 -48 -55 -71 -85 -77 -16 -4 -55 -17 -86 -30 l-57
-23 -76 39 c-145 75 -245 202 -229 289 4 21 15 51 25 66 16 24 21 26 63 20 25
-3 84 -25 131 -47z m790 -472 c278 -116 430 -369 416 -697 -3 -63 -8 -131 -13
-150 -8 -35 -9 -35 -75 -44 -37 -4 -67 -13 -67 -19 0 -6 9 -50 21 -97 l21 -85
99 2 c140 3 194 -21 231 -105 17 -38 18 -49 8 -94 -30 -122 -138 -157 -336
-108 l-83 21 -83 -29 c-195 -69 -409 -103 -608 -97 -157 4 -247 25 -358 81
-198 101 -314 335 -312 628 1 220 73 389 224 529 53 49 187 137 253 166 l52
24 51 -38 52 -38 23 29 c12 16 38 49 57 74 32 42 38 46 113 62 114 25 231 19
314 -15z m-1335 -306 c49 -12 92 -24 97 -26 4 -3 -5 -34 -22 -68 -16 -34 -29
-67 -29 -74 0 -7 -5 -24 -12 -38 -11 -24 -14 -25 -77 -21 -71 5 -132 13 -168
21 -13 3 -33 7 -45 10 -188 41 -240 157 -94 209 58 21 236 14 350 -13z"/>
<path d="M2093 1355 c-39 -27 -45 -75 -29 -250 3 -33 8 -70 10 -81 16 -81 103
-104 150 -41 17 23 21 45 23 115 2 88 -14 189 -35 229 -23 43 -79 56 -119 28z"/>
<path d="M1690 1349 c-45 -16 -55 -45 -56 -159 -1 -204 39 -279 134 -254 50
14 72 129 51 270 -19 122 -59 167 -129 143z"/>
</g>
</svg>
